<svg id="visual" viewBox="0 0 1920 1080" width="1920" height="1080" xmlns="http://www.w3.org/2000/svg" xmlns:xlink="http://www.w3.org/1999/xlink" version="1.1"><rect x="0" y="0" width="1920" height="1080" fill="#001220"></rect><path d="M0 701L32 703.5C64 706 128 711 192 707.2C256 703.3 320 690.7 384 685.8C448 681 512 684 576 707.2C640 730.3 704 773.7 768 775.3C832 777 896 737 960 710.3C1024 683.7 1088 670.3 1152 687.5C1216 704.7 1280 752.3 1344 771.5C1408 790.7 1472 781.3 1536 769.5C1600 757.7 1664 743.3 1728 735.8C1792 728.3 1856 727.7 1888 727.3L1920 727L1920 1081L1888 1081C1856 1081 1792 1081 1728 1081C1664 1081 1600 1081 1536 1081C1472 1081 1408 1081 1344 1081C1280 1081 1216 1081 1152 1081C1088 1081 1024 1081 960 1081C896 1081 832 1081 768 1081C704 1081 640 1081 576 1081C512 1081 448 1081 384 1081C320 1081 256 1081 192 1081C128 1081 64 1081 32 1081L0 1081Z" fill="#4ff7f7"></path><path d="M0 855L32 839.2C64 823.3 128 791.7 192 778.8C256 766 320 772 384 778C448 784 512 790 576 800.7C640 811.3 704 826.7 768 820.7C832 814.7 896 787.3 960 792.8C1024 798.3 1088 836.7 1152 862.8C1216 889 1280 903 1344 904.7C1408 906.3 1472 895.7 1536 887.3C1600 879 1664 873 1728 878.2C1792 883.3 1856 899.7 1888 907.8L1920 916L1920 1081L1888 1081C1856 1081 1792 1081 1728 1081C1664 1081 1600 1081 1536 1081C1472 1081 1408 1081 1344 1081C1280 1081 1216 1081 1152 1081C1088 1081 1024 1081 960 1081C896 1081 832 1081 768 1081C704 1081 640 1081 576 1081C512 1081 448 1081 384 1081C320 1081 256 1081 192 1081C128 1081 64 1081 32 1081L0 1081Z" fill="#00baff"></path><path d="M0 893L32 910.2C64 927.3 128 961.7 192 960.3C256 959 320 922 384 907.3C448 892.7 512 900.3 576 899C640 897.7 704 887.3 768 886.7C832 886 896 895 960 906.3C1024 917.7 1088 931.3 1152 948.3C1216 965.3 1280 985.7 1344 990.3C1408 995 1472 984 1536 968C1600 952 1664 931 1728 916C1792 901 1856 892 1888 887.5L1920 883L1920 1081L1888 1081C1856 1081 1792 1081 1728 1081C1664 1081 1600 1081 1536 1081C1472 1081 1408 1081 1344 1081C1280 1081 1216 1081 1152 1081C1088 1081 1024 1081 960 1081C896 1081 832 1081 768 1081C704 1081 640 1081 576 1081C512 1081 448 1081 384 1081C320 1081 256 1081 192 1081C128 1081 64 1081 32 1081L0 1081Z" fill="#715df2"></path></svg>